<svg width="48" height="47" viewBox="0 0 48 47" fill="none" xmlns="http://www.w3.org/2000/svg">
<rect x="0.878784" width="47" height="47" rx="23.5" fill="#273C4F"/>
<path d="M19.2868 25.7461C17.8056 25.7461 16.5978 24.4041 16.5978 22.7624C16.5978 21.1194 17.7757 19.7773 19.2882 19.7773C20.7837 19.7773 22.0085 21.1194 21.9786 22.7624C21.9786 24.4041 20.7837 25.7461 19.2868 25.7461ZM29.2194 25.7447C27.7382 25.7447 26.5276 24.4027 26.5276 22.761C26.5276 21.1179 27.7083 19.7759 29.2194 19.7759C30.7149 19.7759 31.9397 21.1179 31.9113 22.761C31.9113 24.4027 30.7306 25.7447 29.2194 25.7447ZM21.5727 12.2195L21.134 11.4199L20.231 11.5705C18.1847 11.9107 16.193 12.522 14.309 13.3882L13.9843 13.5373L13.7821 13.8355C10.0605 19.3073 9.03935 24.6966 9.54496 29.9894L9.6005 30.5674L10.0705 30.9083C12.2599 32.51 14.7051 33.731 17.3028 34.5196L18.428 34.8633L20.0131 31.0062C22.7334 31.6765 25.7528 31.6765 28.4717 31.0062L30.0484 34.8647L31.1735 34.521C33.7733 33.7341 36.2199 32.512 38.4087 30.9068L38.8744 30.5689L38.9314 29.998C39.5523 23.863 37.9387 18.5191 34.7184 13.8313L34.5162 13.5359L34.1915 13.3882C32.3079 12.526 30.3187 11.9148 28.2752 11.5705L27.395 11.4242L26.9478 12.1939C26.8224 12.4069 26.6957 12.6483 26.5732 12.894C25.0282 12.7349 23.4709 12.7349 21.9259 12.894C21.8048 12.6526 21.6838 12.4197 21.5727 12.2195ZM16.716 29.6713C16.9966 29.8332 17.2928 29.9923 17.5848 30.1371L16.9453 31.6936C15.2157 31.0649 13.5747 30.2163 12.063 29.1686C11.7426 24.7123 12.6512 20.2147 15.7148 15.578C17.0076 15.0103 18.3553 14.5758 19.7368 14.2815C19.8223 14.459 19.902 14.6337 19.9676 14.787L20.3564 15.7002L21.342 15.5567C23.2734 15.2746 25.2357 15.2746 27.1671 15.5567L28.1498 15.6988L28.5372 14.787C28.6042 14.628 28.6825 14.4547 28.7651 14.2815C30.1566 14.5797 31.5039 15.0199 32.7929 15.5809C35.4633 19.5856 36.8107 24.0533 36.419 29.1672C34.9075 30.2172 33.2653 31.0664 31.5338 31.6936L30.9 30.1386C31.1934 29.9937 31.4897 29.8346 31.7731 29.6713C32.471 29.2709 33.2216 28.771 33.7001 28.2938L31.8771 26.4761C31.6449 26.709 31.1322 27.0725 30.4856 27.4446C29.8532 27.8081 29.2251 28.1021 28.8235 28.2342C25.9707 29.1757 22.517 29.1757 19.6628 28.2342C19.2626 28.1021 18.6345 27.8081 18.0021 27.4446C17.3555 27.0739 16.8428 26.709 16.6092 26.4761L14.7862 28.2938C15.2661 28.771 16.0181 29.2709 16.716 29.6713Z" fill="#FE3C43"/>
</svg>
