<svg width="48" height="47" viewBox="0 0 48 47" fill="none" xmlns="http://www.w3.org/2000/svg">
<rect x="0.939453" width="47" height="47" rx="23.5" fill="#273C4F"/>
<path d="M12.3334 22.7809C12.3334 17.4256 12.3334 14.7473 14.0026 13.0843C15.6704 11.4199 18.3565 11.4199 23.7273 11.4199H26.5758C31.9466 11.4199 34.6327 11.4199 36.3005 13.0843C37.9697 14.7473 37.9697 17.4256 37.9697 22.7809V25.6211C37.9697 30.9764 37.9697 33.6548 36.3005 35.3177C34.6327 36.9821 31.9466 36.9821 26.5758 36.9821H23.7273C18.3565 36.9821 15.6704 36.9821 14.0026 35.3177C12.3334 33.6548 12.3334 30.9764 12.3334 25.6211V22.7809Z" stroke="#FE3C43" stroke-width="2"/>
<path d="M31.5606 19.941C32.7405 19.941 33.697 18.9873 33.697 17.8108C33.697 16.6344 32.7405 15.6807 31.5606 15.6807C30.3807 15.6807 29.4243 16.6344 29.4243 17.8108C29.4243 18.9873 30.3807 19.941 31.5606 19.941Z" fill="#FE3C43"/>
<path d="M25.1516 28.4612C27.5113 28.4612 29.4243 26.5537 29.4243 24.2008C29.4243 21.8479 27.5113 19.9404 25.1516 19.9404C22.7918 19.9404 20.8788 21.8479 20.8788 24.2008C20.8788 26.5537 22.7918 28.4612 25.1516 28.4612Z" stroke="#FE3C43" stroke-width="2"/>
</svg>
